<svg width="15" height="16" viewBox="0 0 15 16" fill="none" xmlns="http://www.w3.org/2000/svg">
<path d="M7.5 15.1943C8.47526 15.1943 9.39355 15.0075 10.2549 14.6338C11.1162 14.2646 11.8727 13.752 12.5244 13.0957C13.1807 12.4395 13.6956 11.6829 14.0693 10.8262C14.443 9.96484 14.6299 9.04427 14.6299 8.06445C14.6299 7.08919 14.443 6.17318 14.0693 5.31641C13.6956 4.45508 13.1807 3.69629 12.5244 3.04004C11.8727 2.38379 11.1139 1.87109 10.248 1.50195C9.38672 1.12826 8.46842 0.941406 7.49316 0.941406C6.5179 0.941406 5.59961 1.12826 4.73828 1.50195C3.87695 1.87109 3.11816 2.38379 2.46191 3.04004C1.81022 3.69629 1.29753 4.45508 0.923828 5.31641C0.554688 6.17318 0.370117 7.08919 0.370117 8.06445C0.370117 9.04427 0.554688 9.96484 0.923828 10.8262C1.29753 11.6829 1.8125 12.4395 2.46875 13.0957C3.125 13.752 3.88379 14.2646 4.74512 14.6338C5.60645 15.0075 6.52474 15.1943 7.5 15.1943ZM6.74121 11.4551C6.59993 11.4551 6.47233 11.4255 6.3584 11.3662C6.24447 11.3024 6.13737 11.2067 6.03711 11.0791L4.38965 9.09668C4.32585 9.01009 4.27572 8.92578 4.23926 8.84375C4.20736 8.75716 4.19141 8.66829 4.19141 8.57715C4.19141 8.38574 4.25749 8.22396 4.38965 8.0918C4.52181 7.95508 4.68359 7.88672 4.875 7.88672C4.98893 7.88672 5.09147 7.91178 5.18262 7.96191C5.27376 8.00749 5.36491 8.08724 5.45605 8.20117L6.7207 9.78711L9.47559 5.38477C9.63965 5.125 9.84245 4.99512 10.084 4.99512C10.2663 4.99512 10.4281 5.05436 10.5693 5.17285C10.7152 5.29134 10.7881 5.44629 10.7881 5.6377C10.7881 5.72428 10.7699 5.81087 10.7334 5.89746C10.7015 5.98405 10.6605 6.06608 10.6104 6.14355L7.41797 11.0791C7.33594 11.1976 7.23568 11.291 7.11719 11.3594C7.00326 11.4232 6.87793 11.4551 6.74121 11.4551Z" fill="#00DF9B"/>
</svg>
