<?xml version="1.0" encoding="UTF-8"?>
<svg width="102px" height="74px" viewBox="0 0 102 74" version="1.1" xmlns="http://www.w3.org/2000/svg" xmlns:xlink="http://www.w3.org/1999/xlink">
    <title>seekdid_logo01@1x</title>
    <g id="seekdid_logo" stroke="none" stroke-width="1" fill="none" fill-rule="evenodd">
        <g id="画板" transform="translate(-261.000000, -176.000000)">
            <g id="seekdid_logo01" transform="translate(261.000000, 176.000000)">
                <g id="编组-4" transform="translate(2.000000, 38.000000)">
                    <rect id="矩形" fill="#00B981" x="40" y="0" width="18" height="36"></rect>
                    <polygon id="矩形" fill="#00FBAE" points="49 0 58 0 58 9"></polygon>
                    <rect id="矩形" fill="#2D3091" x="0" y="0" width="18" height="36"></rect>
                    <path d="M36,18 C36,8.0588745 27.9411255,0 18,0 C18,4.62857143 18,4.62857143 18,9 C18,13.6285714 18,14.9142857 18,18 C26.9980907,17.9821025 32.6571429,18 36,18 Z" id="椭圆形" fill="#E81E25"></path>
                    <path d="M36,36 C36,26.0588745 27.9411255,18 18,18 C18,22.6285714 18,22.6285714 18,27 C18,31.6285714 18,32.9142857 18,36 C26.9980907,35.9821025 32.6571429,36 36,36 Z" id="椭圆形" fill="#FCB040" transform="translate(27.000000, 27.000000) scale(1, -1) translate(-27.000000, -27.000000) "></path>
                    <rect id="矩形" fill="#00B981" x="0" y="0" width="18" height="36"></rect>
                    <path d="M36,18 C36,8.0588745 27.9411255,0 18,0 C18,4.62857143 18,4.62857143 18,9 C18,13.6285714 18,14.9142857 18,18 C27,18 32.6571429,18 36,18 Z" id="椭圆形" fill="#00DD9A"></path>
                    <path d="M36,36 C36,26.0588745 27.9411255,18 18,18 C18,22.6285714 18,22.6285714 18,27 C18,31.6285714 18,32.9142857 18,36 C27,36 32.6571429,36 36,36 Z" id="椭圆形" fill="#00FBAE" transform="translate(27.000000, 27.000000) scale(1, -1) translate(-27.000000, -27.000000) "></path>
                    <rect id="矩形" fill="#00B981" x="64" y="0" width="18" height="36"></rect>
                    <path d="M100,18 C100,8.0588745 91.9411255,0 82,0 C82,4.62857143 82,4.62857143 82,9 C82,13.6285714 82,14.9142857 82,18 C91,18 96.6571429,18 100,18 Z" id="椭圆形" fill="#00FBAE"></path>
                    <path d="M100,36 C100,26.0588745 91.9411255,18 82,18 C82,22.6285714 82,22.6285714 82,27 C82,31.6285714 82,32.9142857 82,36 C91,36 96.6571429,36 100,36 Z" id="椭圆形" fill="#00DD9A" transform="translate(91.000000, 27.000000) scale(1, -1) translate(-91.000000, -27.000000) "></path>
                </g>
                <path d="M10.481,30.41 C19.296,30.41 22.043,27.089 22.043,21.431 C22.043,16.265 21.182,14.01 14.089,12.165 C10.563,11.263 9.948,10.976 9.948,9.664 C9.948,8.311 10.973,7.696 13.597,7.696 C15.852,7.696 19.419,8.229 20.608,8.68 L20.608,2.161 C19.009,1.628 16.795,1.136 13.228,1.136 C6.422,1.136 2.076,3.268 2.076,9.992 C2.076,15.035 3.552,17.003 9.784,18.438 C13.351,19.299 13.884,19.996 13.884,21.185 C13.884,22.948 13.433,23.522 10.03,23.522 C7.488,23.522 4.167,22.989 2.281,22.456 L2.281,29.467 C4.29,29.959 7.324,30.41 10.481,30.41 Z M45.7,30 L45.7,22.989 L35.04,22.989 L35.04,18.971 L44.593,18.971 L44.593,12.206 L35.04,12.206 L35.04,8.598 L45.454,8.598 L45.454,1.546 L26.881,1.546 L26.881,30 L45.7,30 Z M68.947,30 L68.947,22.989 L58.287,22.989 L58.287,18.971 L67.84,18.971 L67.84,12.206 L58.287,12.206 L58.287,8.598 L68.701,8.598 L68.701,1.546 L50.128,1.546 L50.128,30 L68.947,30 Z M81.534,30 L81.534,18.192 L82.641,18.192 L89.611,30 L99.328,30 L89.488,14.707 L98.918,1.546 L89.529,1.546 L82.641,11.796 L81.534,11.796 L81.534,1.546 L73.375,1.546 L73.375,30 L81.534,30 Z" id="SEEK" fill="#FFFFFF" fill-rule="nonzero"></path>
            </g>
        </g>
    </g>
</svg>