<?xml version="1.0" encoding="UTF-8"?>
<svg width="227px" height="36px" viewBox="0 0 227 36" version="1.1" xmlns="http://www.w3.org/2000/svg" xmlns:xlink="http://www.w3.org/1999/xlink">
    <title>logo_1_3@10x</title>
    <g id="seekdid_logo" stroke="none" stroke-width="1" fill="none" fill-rule="evenodd">
        <g id="画板" transform="translate(-348.000000, -731.000000)" fill="#FFFFFF">
            <g id="logo_1_3" transform="translate(348.000000, 731.000000)">
                <g id="编组-4" transform="translate(127.000000, 0.000000)">
                    <rect id="矩形" x="40" y="0" width="18" height="36"></rect>
                    <polygon id="矩形" points="49 0 58 0 58 9"></polygon>
                    <rect id="矩形" x="0" y="0" width="18" height="36"></rect>
                    <path d="M36,18 C36,8.0588745 27.9411255,0 18,0 C18,4.62857143 18,4.62857143 18,9 C18,13.6285714 18,14.9142857 18,18 C26.9980907,17.9821025 32.6571429,18 36,18 Z" id="椭圆形"></path>
                    <path d="M36,36 C36,26.0588745 27.9411255,18 18,18 C18,22.6285714 18,22.6285714 18,27 C18,31.6285714 18,32.9142857 18,36 C26.9980907,35.9821025 32.6571429,36 36,36 Z" id="椭圆形" transform="translate(27.000000, 27.000000) scale(1, -1) translate(-27.000000, -27.000000) "></path>
                    <rect id="矩形" x="0" y="0" width="18" height="36"></rect>
                    <path d="M36,18 C36,8.0588745 27.9411255,0 18,0 C18,4.62857143 18,4.62857143 18,9 C18,13.6285714 18,14.9142857 18,18 C27,18 32.6571429,18 36,18 Z" id="椭圆形"></path>
                    <path d="M36,36 C36,26.0588745 27.9411255,18 18,18 C18,22.6285714 18,22.6285714 18,27 C18,31.6285714 18,32.9142857 18,36 C27,36 32.6571429,36 36,36 Z" id="椭圆形" transform="translate(27.000000, 27.000000) scale(1, -1) translate(-27.000000, -27.000000) "></path>
                    <rect id="矩形" x="64" y="0" width="18" height="36"></rect>
                    <path d="M100,18 C100,8.0588745 91.9411255,0 82,0 C82,4.62857143 82,4.62857143 82,9 C82,13.6285714 82,14.9142857 82,18 C91,18 96.6571429,18 100,18 Z" id="椭圆形"></path>
                    <path d="M100,36 C100,26.0588745 91.9411255,18 82,18 C82,22.6285714 82,22.6285714 82,27 C82,31.6285714 82,32.9142857 82,36 C91,36 96.6571429,36 100,36 Z" id="椭圆形" transform="translate(91.000000, 27.000000) scale(1, -1) translate(-91.000000, -27.000000) "></path>
                </g>
                <path d="M10.523614,36 C21.5605749,36 25,31.9159664 25,24.9579832 C25,18.605042 23.9219713,15.8319328 15.0410678,13.5630252 C10.6262834,12.4537815 9.85626283,12.1008403 9.85626283,10.487395 C9.85626283,8.82352941 11.1396304,8.06722689 14.4250513,8.06722689 C17.24846,8.06722689 21.7145791,8.72268908 23.2032854,9.27731092 L23.2032854,1.2605042 C21.201232,0.605042017 18.4291581,0 13.963039,0 C5.44147844,0 0,2.62184874 0,10.8907563 C0,17.092437 1.84804928,19.512605 9.65092402,21.2773109 C14.1170431,22.3361345 14.7843943,23.1932773 14.7843943,24.6554622 C14.7843943,26.8235294 14.2197125,27.5294118 9.95893224,27.5294118 C6.7761807,27.5294118 2.61806982,26.8739496 0.256673511,26.2184874 L0.256673511,34.8403361 C2.77207392,35.4453782 6.57084189,36 10.523614,36 Z M53,36 L53,27.3760807 L39.9716776,27.3760807 L39.9716776,22.4337176 L51.6470588,22.4337176 L51.6470588,14.1123919 L39.9716776,14.1123919 L39.9716776,9.67435159 L52.6993464,9.67435159 L52.6993464,1 L30,1 L30,36 L53,36 Z M82,36 L82,27.3760807 L68.9716776,27.3760807 L68.9716776,22.4337176 L80.6470588,22.4337176 L80.6470588,14.1123919 L68.9716776,14.1123919 L68.9716776,9.67435159 L81.6993464,9.67435159 L81.6993464,1 L59,1 L59,36 L82,36 Z M97.0600316,36 L97.0600316,21.4755043 L98.4249605,21.4755043 L107.018957,36 L119,36 L106.867299,17.1887608 L118.494471,1 L106.917852,1 L98.4249605,13.6080692 L97.0600316,13.6080692 L97.0600316,1 L87,1 L87,36 L97.0600316,36 Z" id="SEEK" fill-rule="nonzero"></path>
            </g>
        </g>
    </g>
</svg>