<?xml version="1.0" encoding="UTF-8"?>
<svg width="100px" height="73px" viewBox="0 0 100 73" version="1.1" xmlns="http://www.w3.org/2000/svg" xmlns:xlink="http://www.w3.org/1999/xlink">
    <title>seekdid_logo04@1x</title>
    <g id="seekdid_logo" stroke="none" stroke-width="1" fill="none" fill-rule="evenodd">
        <g id="画板" transform="translate(-1242.000000, -214.000000)">
            <g id="seekdid_logo04" transform="translate(1242.000000, 214.136000)">
                <g id="编组-4" transform="translate(0.000000, 36.864000)">
                    <rect id="矩形" fill="#00B981" x="40" y="0" width="18" height="36"></rect>
                    <polygon id="矩形" fill="#00FBAE" points="49 0 58 0 58 9"></polygon>
                    <rect id="矩形" fill="#2D3091" x="0" y="0" width="18" height="36"></rect>
                    <path d="M36,18 C36,8.0588745 27.9411255,0 18,0 C18,4.62857143 18,4.62857143 18,9 C18,13.6285714 18,14.9142857 18,18 C26.9980907,17.9821025 32.6571429,18 36,18 Z" id="椭圆形" fill="#E81E25"></path>
                    <path d="M36,36 C36,26.0588745 27.9411255,18 18,18 C18,22.6285714 18,22.6285714 18,27 C18,31.6285714 18,32.9142857 18,36 C26.9980907,35.9821025 32.6571429,36 36,36 Z" id="椭圆形" fill="#FCB040" transform="translate(27.000000, 27.000000) scale(1, -1) translate(-27.000000, -27.000000) "></path>
                    <rect id="矩形" fill="#00B981" x="0" y="0" width="18" height="36"></rect>
                    <path d="M36,18 C36,8.0588745 27.9411255,0 18,0 C18,4.62857143 18,4.62857143 18,9 C18,13.6285714 18,14.9142857 18,18 C27,18 32.6571429,18 36,18 Z" id="椭圆形" fill="#00DD9A"></path>
                    <path d="M36,36 C36,26.0588745 27.9411255,18 18,18 C18,22.6285714 18,22.6285714 18,27 C18,31.6285714 18,32.9142857 18,36 C27,36 32.6571429,36 36,36 Z" id="椭圆形" fill="#00FBAE" transform="translate(27.000000, 27.000000) scale(1, -1) translate(-27.000000, -27.000000) "></path>
                    <rect id="矩形" fill="#00B981" x="64" y="0" width="18" height="36"></rect>
                    <path d="M100,18 C100,8.0588745 91.9411255,0 82,0 C82,4.62857143 82,4.62857143 82,9 C82,13.6285714 82,14.9142857 82,18 C91,18 96.6571429,18 100,18 Z" id="椭圆形" fill="#00FBAE"></path>
                    <path d="M100,36 C100,26.0588745 91.9411255,18 82,18 C82,22.6285714 82,22.6285714 82,27 C82,31.6285714 82,32.9142857 82,36 C91,36 96.6571429,36 100,36 Z" id="椭圆形" fill="#00DD9A" transform="translate(91.000000, 27.000000) scale(1, -1) translate(-91.000000, -27.000000) "></path>
                </g>
                <path d="M8.481,29.274 C17.296,29.274 20.043,25.953 20.043,20.295 C20.043,15.129 19.182,12.874 12.089,11.029 C8.563,10.127 7.948,9.84 7.948,8.528 C7.948,7.175 8.973,6.56 11.597,6.56 C13.852,6.56 17.419,7.093 18.608,7.544 L18.608,1.025 C17.009,0.492 14.795,5.68434189e-14 11.228,5.68434189e-14 C4.422,5.68434189e-14 0.076,2.132 0.076,8.856 C0.076,13.899 1.552,15.867 7.784,17.302 C11.351,18.163 11.884,18.86 11.884,20.049 C11.884,21.812 11.433,22.386 8.03,22.386 C5.488,22.386 2.167,21.853 0.281,21.32 L0.281,28.331 C2.29,28.823 5.324,29.274 8.481,29.274 Z M43.7,28.864 L43.7,21.853 L33.04,21.853 L33.04,17.835 L42.593,17.835 L42.593,11.07 L33.04,11.07 L33.04,7.462 L43.454,7.462 L43.454,0.41 L24.881,0.41 L24.881,28.864 L43.7,28.864 Z M66.947,28.864 L66.947,21.853 L56.287,21.853 L56.287,17.835 L65.84,17.835 L65.84,11.07 L56.287,11.07 L56.287,7.462 L66.701,7.462 L66.701,0.41 L48.128,0.41 L48.128,28.864 L66.947,28.864 Z M79.534,28.864 L79.534,17.056 L80.641,17.056 L87.611,28.864 L97.328,28.864 L87.488,13.571 L96.918,0.41 L87.529,0.41 L80.641,10.66 L79.534,10.66 L79.534,0.41 L71.375,0.41 L71.375,28.864 L79.534,28.864 Z" id="SEEK" fill="#1C1C23" fill-rule="nonzero"></path>
            </g>
        </g>
    </g>
</svg>