<svg xmlns="http://www.w3.org/2000/svg" width="22" height="22" viewBox="0 0 48 48">
<circle cx="24" cy="24" r="24" fill="#2DE370"></circle>
<path fill-rule="evenodd" clip-rule="evenodd" d="M8 22.1909L17.6056 12.6348H30.3945L40 22.1909L24 38.1085L8 22.1909ZM17.1586 18.8406C20.937 15.0574 27.0631 15.0574 30.8415 18.8406L34.1053 22.1085L30.8415 25.3764C27.0631 29.1596 20.937 29.1596 17.1586 25.3764L13.8948 22.1085L17.1586 18.8406ZM20 22.2137C20 24.3648 21.7909 26.1085 24 26.1085C26.2092 26.1085 28 24.3648 28 22.2137C28 20.0627 26.2092 18.319 24 18.319C21.7909 18.319 20 20.0627 20 22.2137ZM22.3158 22.1085C22.3158 23.039 23.0703 23.7927 24 23.7927C24.9298 23.7927 25.6843 23.039 25.6843 22.1085C25.6843 21.1779 24.9298 20.4243 24 20.4243C23.0703 20.4243 22.3158 21.1779 22.3158 22.1085Z" fill="black"></path>
</svg>