<svg id="OpenSea-02_svg__Layer_1" data-name="Layer 1" xmlns="http://www.w3.org/2000/svg" viewBox="0 0 147.03 147.03" width="26" height="26"><defs><style>.OpenSea-02_svg__cls-2{fill:#fff}</style></defs><path d="M147 73.51A73.52 73.52 0 1 1 73.51 0 73.53 73.53 0 0 1 147 73.51Z" style="fill: rgb(32, 129, 226);"></path><path class="OpenSea-02_svg__cls-2" d="m36.27 76 .32-.5 19.12-29.93a.66.66 0 0 1 1.15.08c3.19 7.16 6 16.07 4.66 21.61a33.6 33.6 0 0 1-3.76 8.22A13.47 13.47 0 0 1 57 76.7a.66.66 0 0 1-.55.29H36.83a.66.66 0 0 1-.56-.99Z"></path><path class="OpenSea-02_svg__cls-2" d="M121.51 81.54v4.74a.69.69 0 0 1-.41.62c-1.48.63-6.55 3-8.65 5.89C107.07 100.27 103 111 93.77 111H55.46a24.63 24.63 0 0 1-24.58-24.69v-.44a.66.66 0 0 1 .65-.66h21.36a.74.74 0 0 1 .7.81 7.27 7.27 0 0 0 .76 4.1 7.52 7.52 0 0 0 6.74 4.19h10.57v-8.26H61.21a.68.68 0 0 1-.55-1.05c.12-.17.25-.35.38-.56 1-1.4 2.4-3.58 3.81-6.07a45.27 45.27 0 0 0 2.63-5.26c.15-.33.28-.66.4-1 .2-.58.41-1.11.56-1.65s.27-.93.4-1.37a21.65 21.65 0 0 0 .5-4.82c0-.66 0-1.35-.09-2s-.12-1.43-.21-2.15-.17-1.26-.29-1.92c-.16-1-.37-1.91-.61-2.87l-.08-.33c-.18-.66-.33-1.28-.55-1.94-.59-2.06-1.28-4.07-2-6-.26-.75-.56-1.47-.86-2.18-.45-1.08-.9-2.07-1.32-3-.21-.43-.39-.81-.57-1.21s-.42-.89-.63-1.31-.32-.63-.44-.93l-1.3-2.39a.42.42 0 0 1 .48-.61l8.08 2.19 1.07.29 1.17.34.43.12V33.6a4.17 4.17 0 0 1 4.15-4.19 4.08 4.08 0 0 1 2.94 1.23 4.2 4.2 0 0 1 1.22 3v7.13l.86.25a.72.72 0 0 1 .2.09c.21.16.51.4.89.68s.63.54 1 .84c.78.63 1.71 1.44 2.73 2.37.27.23.54.47.78.71 1.31 1.23 2.79 2.66 4.19 4.25.39.44.78.9 1.17 1.37s.81 1 1.17 1.44c.48.63 1 1.29 1.44 2 .21.32.45.65.65 1 .58.87 1.08 1.77 1.57 2.66.2.42.41.87.59 1.32a19.41 19.41 0 0 1 1.24 3.65 4.67 4.67 0 0 1 .17.81v.06a6.82 6.82 0 0 1 .15 1.14 12.31 12.31 0 0 1-.21 3.77 13.22 13.22 0 0 1-.45 1.57c-.18.52-.36 1-.59 1.56a21.14 21.14 0 0 1-1.63 3.08c-.2.36-.44.75-.68 1.11s-.54.75-.78 1.1-.69.93-1 1.36a16.36 16.36 0 0 1-1 1.28c-.51.6-1 1.16-1.5 1.71-.3.35-.62.71-1 1s-.65.69-1 1c-.5.5-.93.9-1.28 1.22l-.83.76a.66.66 0 0 1-.45.17H80v8.26h8.1a7.61 7.61 0 0 0 4.9-1.87 60.68 60.68 0 0 0 5-4.93.63.63 0 0 1 .31-.19l22.36-6.46a.66.66 0 0 1 .84.63Z"></path></svg>