<svg width="22" height="22" viewBox="0 0 22 22" fill="none" xmlns="http://www.w3.org/2000/svg">
<path d="M22 11C22 17.0748 17.0748 22 11 22C4.92521 22 0 17.0748 0 11C0 4.92521 4.92521 0 11 0C17.0761 0 22 4.92521 22 11Z" fill="#B1B1D0"/>
<path d="M5.42685 11.3696L5.4743 11.295L8.33584 6.8185C8.37767 6.75297 8.47598 6.75974 8.50762 6.83093C8.98568 7.90231 9.39818 9.23476 9.20493 10.0643C9.12243 10.4056 8.8964 10.8678 8.64211 11.295C8.60935 11.3572 8.57318 11.4182 8.53475 11.477C8.51666 11.5041 8.48615 11.5199 8.45337 11.5199H5.51047C5.43136 11.5199 5.38503 11.434 5.42685 11.3696Z" fill="#121212"/>
<path d="M18.1819 12.2014V12.91C18.1819 12.9507 18.157 12.9869 18.1209 13.0027C17.8994 13.0976 17.141 13.4457 16.8257 13.8842C16.021 15.0042 15.4063 16.6056 14.032 16.6056H8.29874C6.26675 16.6056 4.62012 14.9534 4.62012 12.9146V12.849C4.62012 12.7948 4.66418 12.7507 4.71844 12.7507H7.91451C7.97778 12.7507 8.02411 12.8095 8.01848 12.8716C7.99586 13.0796 8.0343 13.292 8.13261 13.4853C8.32247 13.8707 8.71577 14.1114 9.1407 14.1114H10.7229V12.8761H9.15878C9.07855 12.8761 9.0311 12.7835 9.07743 12.7179C9.09437 12.6919 9.11359 12.6648 9.13392 12.6343C9.28198 12.4241 9.49331 12.0975 9.70352 11.7257C9.84705 11.4748 9.98605 11.2069 10.0979 10.9379C10.1206 10.8893 10.1386 10.8396 10.1567 10.791C10.1872 10.7051 10.2189 10.6249 10.2415 10.5446C10.2641 10.4768 10.2821 10.4056 10.3002 10.3389C10.3534 10.1107 10.376 9.86881 10.376 9.61792C10.376 9.5196 10.3714 9.41675 10.3624 9.31843C10.3579 9.21107 10.3443 9.10369 10.3307 8.99633C10.3217 8.9014 10.3048 8.80759 10.2867 8.70928C10.2641 8.56575 10.2324 8.42336 10.1963 8.27981L10.1838 8.22558C10.1567 8.12724 10.1341 8.03346 10.1025 7.93514C10.0132 7.62659 9.91035 7.32598 9.80184 7.04458C9.76229 6.93269 9.71708 6.82533 9.67187 6.71797C9.60521 6.55635 9.53738 6.40944 9.47523 6.27042C9.44359 6.20713 9.41647 6.14949 9.38934 6.09072C9.35883 6.02404 9.32719 5.95736 9.29553 5.89409C9.27294 5.84549 9.24694 5.80028 9.22885 5.75507L9.0356 5.39794C9.00848 5.34935 9.05369 5.29171 9.1068 5.3064L10.3161 5.63414H10.3195C10.3217 5.63414 10.3228 5.63528 10.324 5.63528L10.4833 5.67935L10.6585 5.72909L10.7229 5.74715V5.02839C10.7229 4.68143 11.0009 4.40002 11.3445 4.40002C11.5163 4.40002 11.6722 4.47009 11.7841 4.58423C11.896 4.69839 11.9661 4.85435 11.9661 5.02839V6.09526L12.0949 6.1314C12.1051 6.13481 12.1153 6.13932 12.1243 6.1461C12.156 6.16984 12.2011 6.20486 12.2588 6.24783C12.304 6.28397 12.3526 6.32806 12.4113 6.37327C12.5278 6.46706 12.6668 6.58799 12.8193 6.72701C12.86 6.76203 12.8996 6.7982 12.9357 6.83437C13.1324 7.01745 13.3528 7.23217 13.563 7.46951C13.6217 7.53619 13.6794 7.60399 13.7381 7.67519C13.7969 7.74752 13.8591 7.81872 13.9133 7.88993C13.9845 7.98486 14.0614 8.08318 14.1281 8.18603C14.1597 8.23462 14.1959 8.28434 14.2264 8.33294C14.3123 8.4629 14.388 8.5974 14.4603 8.73189C14.4908 8.79404 14.5225 8.86184 14.5496 8.92853C14.6298 9.10822 14.6931 9.29131 14.7338 9.47439C14.7462 9.51395 14.7553 9.55689 14.7598 9.59533V9.60437C14.7734 9.6586 14.7779 9.71624 14.7824 9.775C14.8005 9.96262 14.7914 10.1502 14.7508 10.3389C14.7338 10.4192 14.7112 10.4949 14.6841 10.5752C14.657 10.652 14.6298 10.7322 14.5948 10.808C14.527 10.965 14.4467 11.1221 14.3518 11.2691C14.3213 11.3233 14.2851 11.381 14.249 11.4352C14.2094 11.4928 14.1687 11.5471 14.1326 11.6002C14.0828 11.668 14.0297 11.7392 13.9755 11.8025C13.9269 11.8692 13.8772 11.9359 13.8229 11.9946C13.7472 12.0839 13.6749 12.1687 13.5991 12.25C13.5539 12.3032 13.5053 12.3574 13.4556 12.406C13.407 12.4602 13.3573 12.5088 13.3121 12.554C13.2364 12.6298 13.1731 12.6885 13.1199 12.7371L12.9956 12.8513C12.9776 12.8671 12.9538 12.8761 12.929 12.8761H11.9661V14.1114H13.1776C13.4488 14.1114 13.7065 14.0153 13.9145 13.839C13.9856 13.7769 14.2964 13.5079 14.6637 13.1022C14.6762 13.0886 14.692 13.0784 14.7101 13.0739L18.0564 12.1065C18.1186 12.0884 18.1819 12.1359 18.1819 12.2014Z" fill="#121212"/>
</svg>
