<?xml version="1.0" encoding="UTF-8"?>
<svg width="29px" height="32px" viewBox="0 0 29 32" version="1.1" xmlns="http://www.w3.org/2000/svg" xmlns:xlink="http://www.w3.org/1999/xlink">
    <title>bestdas-logo@1x</title>
    <g id="页面-1" stroke="none" stroke-width="1" fill="none" fill-rule="evenodd">
        <g id="bestdas-logo" transform="translate(0.000000, 0.000000)" fill-rule="nonzero">
            <path d="M17.0786,9.54175 C15.6486,9.54175 14.4886,8.38175 14.4886,6.95175 C14.4886,5.51475 15.6486,4.35475 17.0786,4.35475 C18.5076,4.35475 19.6686,5.51475 19.6686,6.95175 C19.6686,8.38175 18.5076,9.54175 17.0786,9.54175 M27.3676,5.15075 L18.5426,0.36975 C17.6246,-0.12325 16.5236,-0.12325 15.6146,0.36975 L6.7896,5.15075 C5.7936,5.68775 5.1786,6.72775 5.1786,7.85375 L5.1786,13.98475 L10.4436,11.13575 C11.3526,10.64175 12.4536,10.64175 13.3716,11.13575 L22.1966,15.91675 C23.1926,16.45275 23.8076,17.49275 23.8076,18.61875 L23.8076,28.92575 C23.8076,29.23675 23.7566,29.54875 23.6696,29.83475 L25.9036,29.83475 C27.6006,29.83475 28.9786,28.45775 28.9786,26.75075 L28.9786,7.85375 C28.9786,6.72775 28.3636,5.68775 27.3676,5.15075" id="Fill-13" fill="#00DF9B"></path>
            <path d="M17.0757,9.53685 C15.6447,9.53685 14.4847,8.37685 14.4847,6.94585 C14.4847,5.51485 15.6447,4.35485 17.0757,4.35485 C18.5067,4.35485 19.6667,5.51485 19.6667,6.94585 C19.6667,8.37685 18.5067,9.53685 17.0757,9.53685 M27.3667,5.14785 L18.5397,0.37085 C17.6267,-0.12315 16.5247,-0.12315 15.6107,0.37085 L6.7837,5.14785 C5.7907,5.68585 5.1727,6.72385 5.1727,7.85385 L5.1727,26.75085 C5.1727,28.44985 6.5497,29.82685 8.2487,29.82685 L25.9027,29.82685 C27.6007,29.82685 28.9787,28.44985 28.9787,26.75085 L28.9787,7.85385 C28.9787,6.72385 28.3597,5.68585 27.3667,5.14785" id="Fill-15" fill="#00DF9B"></path>
            <path d="M20.729,31.99975 L3.076,31.99975 C1.376,31.99975 4.97379915e-14,30.62275 4.97379915e-14,28.92375 L4.97379915e-14,18.61675 C4.97379915e-14,17.48775 0.618,16.44875 1.611,15.91175 L10.438,11.13375 C11.352,10.63975 12.454,10.63975 13.367,11.13375 L22.194,15.91175 C23.187,16.44875 23.805,17.48775 23.805,18.61675 L23.805,28.92375 C23.805,30.62275 22.428,31.99975 20.729,31.99975" id="Fill-17" fill="#2471FE"></path>
        </g>
    </g>
</svg>