<?xml version="1.0" encoding="utf-8"?>
<svg viewBox="-219.978 151.799 75.776 75.776" width="75.776px" height="75.776px" xmlns="http://www.w3.org/2000/svg">
  <g>
    <rect x="-219.978" y="151.799" width="75.776" height="75.776" style="fill: rgba(216, 216, 216, 0); stroke: rgba(0, 0, 0, 0);"/>
    <g>
      <path d="M -213.183 194.198 L -212.936 193.81 L -198.043 170.511 C -197.825 170.17 -197.313 170.205 -197.149 170.576 C -194.661 176.152 -192.514 183.087 -193.52 187.405 C -193.949 189.181 -195.125 191.586 -196.449 193.81 C -196.62 194.134 -196.808 194.451 -197.008 194.757 C -197.102 194.898 -197.261 194.98 -197.431 194.98 L -212.747 194.98 C -213.16 194.98 -213.401 194.533 -213.183 194.198 Z" style="fill: rgb(32, 129, 226);"/>
      <path d="M -146.798 198.527 L -146.798 202.215 C -146.798 202.427 -146.929 202.615 -147.116 202.697 C -148.268 203.191 -152.216 205.003 -153.857 207.285 C -158.045 213.114 -161.244 221.449 -168.397 221.449 L -198.236 221.449 C -208.812 221.449 -217.382 212.85 -217.382 202.239 L -217.382 201.897 C -217.382 201.616 -217.152 201.386 -216.87 201.386 L -200.236 201.386 C -199.906 201.386 -199.665 201.692 -199.694 202.015 C -199.812 203.098 -199.613 204.203 -199.101 205.209 C -198.113 207.215 -196.066 208.468 -193.854 208.468 L -185.62 208.468 L -185.62 202.039 L -193.76 202.039 C -194.177 202.039 -194.424 201.557 -194.183 201.215 C -194.096 201.08 -193.995 200.939 -193.889 200.78 C -193.119 199.686 -192.019 197.986 -190.925 196.051 C -190.178 194.745 -189.454 193.351 -188.872 191.951 C -188.754 191.698 -188.66 191.44 -188.566 191.186 C -188.408 190.74 -188.243 190.322 -188.125 189.904 C -188.007 189.551 -187.914 189.181 -187.82 188.834 C -187.543 187.646 -187.425 186.387 -187.425 185.081 C -187.425 184.569 -187.449 184.034 -187.496 183.522 C -187.519 182.964 -187.59 182.405 -187.66 181.846 C -187.707 181.352 -187.795 180.863 -187.89 180.353 C -188.007 179.605 -188.172 178.864 -188.36 178.117 L -188.425 177.834 C -188.566 177.323 -188.684 176.835 -188.848 176.323 C -189.313 174.718 -189.848 173.153 -190.413 171.688 C -190.619 171.106 -190.854 170.547 -191.089 169.988 C -191.437 169.147 -191.789 168.383 -192.113 167.659 C -192.277 167.329 -192.419 167.03 -192.56 166.724 C -192.719 166.376 -192.883 166.03 -193.048 165.7 C -193.166 165.447 -193.301 165.212 -193.396 164.977 L -194.401 163.118 C -194.542 162.866 -194.307 162.565 -194.03 162.641 L -187.737 164.347 L -187.718 164.347 C -187.707 164.347 -187.702 164.353 -187.696 164.353 L -186.867 164.583 L -185.955 164.841 L -185.62 164.935 L -185.62 161.195 C -185.62 159.389 -184.173 157.924 -182.384 157.924 C -181.49 157.924 -180.679 158.289 -180.096 158.883 C -179.514 159.477 -179.149 160.289 -179.149 161.195 L -179.149 166.747 L -178.479 166.936 C -178.426 166.953 -178.372 166.977 -178.326 167.012 C -178.16 167.135 -177.926 167.318 -177.626 167.541 C -177.39 167.729 -177.138 167.959 -176.832 168.195 C -176.225 168.683 -175.503 169.312 -174.709 170.036 C -174.497 170.218 -174.291 170.406 -174.103 170.594 C -173.079 171.547 -171.932 172.665 -170.838 173.9 C -170.532 174.246 -170.232 174.6 -169.926 174.97 C -169.62 175.346 -169.297 175.717 -169.015 176.087 C -168.645 176.582 -168.244 177.093 -167.897 177.629 C -167.732 177.882 -167.544 178.14 -167.385 178.394 C -166.938 179.07 -166.544 179.77 -166.168 180.469 C -166.009 180.793 -165.844 181.146 -165.703 181.493 C -165.286 182.428 -164.956 183.381 -164.744 184.335 C -164.68 184.54 -164.633 184.764 -164.609 184.963 L -164.609 185.011 C -164.539 185.293 -164.515 185.593 -164.491 185.899 C -164.397 186.876 -164.444 187.851 -164.655 188.834 C -164.744 189.251 -164.862 189.645 -165.003 190.064 C -165.144 190.463 -165.286 190.88 -165.468 191.275 C -165.82 192.092 -166.239 192.91 -166.732 193.675 C -166.891 193.957 -167.08 194.257 -167.268 194.54 C -167.473 194.84 -167.685 195.122 -167.873 195.398 C -168.133 195.751 -168.409 196.121 -168.691 196.451 C -168.944 196.798 -169.203 197.145 -169.485 197.451 C -169.879 197.916 -170.255 198.356 -170.65 198.78 C -170.885 199.057 -171.138 199.339 -171.397 199.592 C -171.65 199.874 -171.908 200.127 -172.144 200.362 C -172.538 200.757 -172.867 201.062 -173.144 201.315 L -173.791 201.909 C -173.885 201.992 -174.009 202.039 -174.138 202.039 L -179.149 202.039 L -179.149 208.468 L -172.844 208.468 C -171.433 208.468 -170.091 207.967 -169.009 207.05 C -168.638 206.727 -167.021 205.327 -165.109 203.215 C -165.044 203.145 -164.962 203.091 -164.867 203.068 L -147.452 198.033 C -147.128 197.939 -146.798 198.186 -146.798 198.527 Z" style="fill: rgb(32, 129, 226);"/>
    </g>
  </g>
</svg>