<?xml version="1.0" encoding="utf-8"?>
<svg viewBox="-4.405 76.05 114.46 114.46" width="114.46px" height="114.46px" xmlns="http://www.w3.org/2000/svg">
  <ellipse style="stroke: rgba(0, 0, 0, 0); fill: rgb(177, 177, 208);" cx="52.825" cy="133.28" rx="57.23" ry="57.23"/>
  <g style="" transform="matrix(0.938379, 0, 0, 0.938379, 5.818109, 10.775807)">
    <g>
      <path d="M 85.288 103.6 C 78.496 96.964 69.206 92.874 58.959 92.874 C 38.152 92.874 21.284 109.741 21.284 130.549 C 21.284 151.357 38.152 168.225 58.959 168.225 C 69.205 168.225 78.496 164.134 85.288 157.498 C 77.187 168.062 64.436 174.873 50.095 174.873 C 25.615 174.873 5.77 155.029 5.77 130.549 C 5.77 106.069 25.615 86.225 50.095 86.225 C 64.436 86.225 77.187 93.036 85.288 103.6 Z" style="fill: rgb(18, 18, 18);"/>
      <path d="M 30.804 152.108 C 36.238 157.417 43.67 160.689 51.867 160.689 C 68.514 160.689 82.008 147.196 82.008 130.549 C 82.008 113.903 68.514 100.409 51.867 100.409 C 43.67 100.409 36.238 103.681 30.804 108.99 C 37.285 100.539 47.486 95.09 58.959 95.09 C 78.543 95.09 94.418 110.965 94.418 130.549 C 94.418 150.133 78.543 166.008 58.959 166.008 C 47.486 166.008 37.285 160.559 30.804 152.108 Z" style="fill: rgb(18, 18, 18);"/>
    </g>
    <path fill-rule="evenodd" clip-rule="evenodd" d="M 76.689 130.549 C 76.689 145.237 64.782 157.144 50.095 157.144 C 35.407 157.144 23.5 145.237 23.5 130.549 C 23.5 115.862 35.407 103.955 50.095 103.955 C 64.782 103.955 76.689 115.862 76.689 130.549 Z M 67.824 130.549 C 67.824 140.341 59.886 148.279 50.095 148.279 C 40.303 148.279 32.365 140.341 32.365 130.549 C 32.365 120.757 40.303 112.82 50.095 112.82 C 59.886 112.82 67.824 120.757 67.824 130.549 Z" style="fill: rgb(18, 18, 18);" transform="matrix(0, -1, 1, 0, -80.454998, 180.644001)"/>
  </g>
</svg>